<?xml version="1.0" encoding="utf-8"?>
<!-- Generator: Adobe Illustrator 26.0.3, SVG Export Plug-In . SVG Version: 6.00 Build 0)  -->
<svg version="1.1" xmlns="http://www.w3.org/2000/svg" xmlns:xlink="http://www.w3.org/1999/xlink" x="0px" y="0px"
	 viewBox="0 0 1800 714.25" style="enable-background:new 0 0 1800 714.25;" xml:space="preserve">
<style type="text/css">
	.st0{fill:url(#SVGID_1_);}
	.st1{fill:url(#SVGID_00000088121105191872247390000000827592054807440821_);}
	.st2{fill:url(#SVGID_00000013182783574329985530000016223726707758838675_);}
	.st3{opacity:0.1;}
	.st4{clip-path:url(#SVGID_00000013172569504370394480000000626159669266848673_);}
	.st5{fill:url(#SVGID_00000079444869582071149440000011091826032876018869_);}
	.st6{fill:url(#SVGID_00000183953181847754910690000015377101650128002454_);}
	.st7{fill:url(#SVGID_00000047747955742841898960000009634051882213973437_);}
	.st8{fill:none;stroke:#FFFFFF;stroke-width:1.7333;stroke-linecap:round;stroke-linejoin:round;stroke-miterlimit:10;}
</style>
<g id="Layer_1">
	<g class="st3">
		<defs>
			<rect id="SVGID_00000179645555917882917020000016660965826492354233_" class="st3" width="1800" height="714.25"/>
		</defs>
		<clipPath id="SVGID_00000060746816047795774810000011107877951813185154_">
			<use xlink:href="#SVGID_00000179645555917882917020000016660965826492354233_"  style="overflow:visible;"/>
		</clipPath>
		<g style="clip-path:url(#SVGID_00000060746816047795774810000011107877951813185154_);">
			<linearGradient id="SVGID_1_" gradientUnits="userSpaceOnUse" x1="1143.7346" y1="-122.5526" x2="2325.8477" y2="1121.777">
				<stop  offset="0" style="stop-color:#A7B846"/>
				<stop  offset="0.8727" style="stop-color:#2E677D"/>
			</linearGradient>
			<path class="st0" d="M2337.98,1169.7l271.2-469.73c64.5-111.73,64.5-250.54,0-362.25l-271.2-469.73
				c-64.5-111.72-184.71-181.13-313.72-181.13h-542.4c-129.01,0-249.22,69.4-313.72,181.13l-271.2,469.73
				c-32.25,55.86-48.38,118.49-48.38,181.12c0,62.63,16.13,125.27,48.38,181.13l271.2,469.73
				c64.5,111.72,184.71,181.13,313.72,181.13h542.4C2153.27,1350.83,2273.48,1281.42,2337.98,1169.7z M1481.86,1280.83
				c-104.08,0-201.06-55.99-253.1-146.13l-271.2-469.73c-52.03-90.13-52.04-202.12,0-292.26l271.2-469.73
				c52.04-90.14,149.02-146.13,253.1-146.13h542.4c104.08,0,201.06,55.99,253.1,146.13l271.2,469.73
				c26.02,45.08,39.03,95.59,39.03,146.13c0,50.52-13.01,101.06-39.03,146.13l-271.2,469.73
				c-52.04,90.14-149.02,146.13-253.1,146.13H1481.86z"/>
			
				<linearGradient id="SVGID_00000084502170328473219800000016594726271028932267_" gradientUnits="userSpaceOnUse" x1="1143.7346" y1="-122.5526" x2="2325.8477" y2="1121.777">
				<stop  offset="0" style="stop-color:#A7B846"/>
				<stop  offset="0.8727" style="stop-color:#2E677D"/>
			</linearGradient>
			<path style="fill:url(#SVGID_00000084502170328473219800000016594726271028932267_);" d="M1836.31,279.66
				c-28.8-28.8-75.67-28.8-104.47,0l-217.95,217.95c-28.8,28.8-28.8,75.67,0,104.47l155.92,155.92c28.8,28.8,75.67,28.8,104.47,0
				l217.95-217.95c28.8-28.8,28.8-75.67,0-104.47L1836.31,279.66z M1942.74,490.57l-217.95,217.95c-1.51,1.51-3.97,1.51-5.49,0
				L1563.37,552.6c-1.51-1.51-1.51-3.97,0-5.49l217.95-217.95c1.51-1.51,3.97-1.51,5.49,0l155.92,155.92
				C1944.26,486.6,1944.26,489.06,1942.74,490.57z"/>
			
				<linearGradient id="SVGID_00000155830893945451080140000013553825516797384856_" gradientUnits="userSpaceOnUse" x1="1143.7345" y1="-122.5526" x2="2325.8477" y2="1121.7771">
				<stop  offset="0" style="stop-color:#A7B846"/>
				<stop  offset="0.8727" style="stop-color:#2E677D"/>
			</linearGradient>
			<path style="fill:url(#SVGID_00000155830893945451080140000013553825516797384856_);" d="M1946.47,1192.42
				c42.99,0,83.4-16.74,113.8-47.14l319.24-319.24c62.75-62.75,62.75-164.85,0-227.6l-79.61-79.61l79.61-79.61
				c62.75-62.75,62.74-164.84,0-227.59l-319.24-319.24c-62.75-62.74-164.84-62.74-227.59,0l-79.61,79.61l-79.61-79.61
				c-62.75-62.74-164.84-62.74-227.6,0l-319.24,319.24c-31.37,31.37-47.06,72.58-47.06,113.8s15.69,82.42,47.06,113.8l79.61,79.61
				l-79.61,79.61c-31.37,31.37-47.06,72.59-47.06,113.8c0,41.21,15.69,82.43,47.06,113.8l319.24,319.24
				c30.4,30.4,70.81,47.14,113.8,47.14s83.4-16.74,113.8-47.14l79.61-79.61l79.61,79.61
				C1863.06,1175.68,1903.48,1192.42,1946.47,1192.42z M1882.17-58.11c35.46-35.46,93.15-35.46,128.61,0l319.24,319.24
				c17.73,17.73,26.59,41.02,26.59,64.3c0,23.29-8.86,46.58-26.59,64.31l-79.61,79.61L1802.55,21.5L1882.17-58.11z M2200.9,518.84
				l-447.84,447.84l-447.85-447.84L1753.06,71L2200.9,518.84z M1176.11,389.74c-35.45-35.46-35.46-93.15,0-128.61l319.23-319.24
				c35.46-35.46,93.15-35.46,128.61,0l79.61,79.61l-447.85,447.85L1176.11,389.74z M1623.95,1095.79
				c-17.18,17.18-40.01,26.64-64.3,26.64c-24.29,0-47.13-9.46-64.31-26.64l-319.24-319.24c-35.46-35.46-35.46-93.16,0-128.61
				l79.61-79.61l447.85,447.84L1623.95,1095.79z M1882.17,1095.79l-79.61-79.61l447.84-447.84l79.61,79.61
				c17.73,17.73,26.59,41.02,26.59,64.31c0,23.29-8.86,46.58-26.59,64.3l-319.24,319.24c-17.18,17.18-40.01,26.64-64.31,26.64
				C1922.18,1122.43,1899.34,1112.97,1882.17,1095.79z"/>
		</g>
	</g>
</g>
<g id="Isolation_Mode">
</g>
</svg>
