<?xml version="1.0" encoding="utf-8"?>
<!-- Generator: Adobe Illustrator 26.0.3, SVG Export Plug-In . SVG Version: 6.00 Build 0)  -->
<svg version="1.1" xmlns="http://www.w3.org/2000/svg" xmlns:xlink="http://www.w3.org/1999/xlink" x="0px" y="0px"
	 viewBox="0 0 85.55 78.69" style="enable-background:new 0 0 85.55 78.69;" xml:space="preserve">
<style type="text/css">
	.st0{fill:url(#SVGID_1_);}
	.st1{fill:url(#SVGID_00000147189270061537948050000013512855664453833402_);}
	.st2{fill:url(#SVGID_00000040570930552993124730000001397386696034480287_);}
	.st3{opacity:0.1;}
	.st4{clip-path:url(#SVGID_00000026885667397813582080000007133902108810586277_);}
	.st5{fill:url(#SVGID_00000151502684009465504450000006936901709352983439_);}
	.st6{fill:url(#SVGID_00000151511500062701143760000017375312095084533391_);}
	.st7{fill:url(#SVGID_00000109722818007345237260000014795421764767304116_);}
	.st8{fill:none;stroke:#FFFFFF;stroke-width:1.7333;stroke-linecap:round;stroke-linejoin:round;stroke-miterlimit:10;}
</style>
<g id="Layer_1">
	<g>
		<linearGradient id="SVGID_1_" gradientUnits="userSpaceOnUse" x1="13.9593" y1="9.0134" x2="69.8627" y2="67.8591">
			<stop  offset="0" style="stop-color:#A7B846"/>
			<stop  offset="0.8727" style="stop-color:#2E677D"/>
		</linearGradient>
		<path class="st0" d="M70.44,70.13l12.83-22.21c3.05-5.28,3.05-11.85,0-17.13L70.44,8.57C67.39,3.28,61.7,0,55.6,0L29.95,0
			c-6.1,0-11.79,3.28-14.84,8.57L2.29,30.78C0.76,33.42,0,36.38,0,39.35c0,2.96,0.76,5.92,2.29,8.57l12.83,22.21
			c3.05,5.28,8.74,8.57,14.84,8.57H55.6C61.7,78.69,67.39,75.41,70.44,70.13z M29.95,75.38c-4.92,0-9.51-2.65-11.97-6.91L5.15,46.26
			c-2.46-4.26-2.46-9.56,0-13.82l12.83-22.21c2.46-4.26,7.05-6.91,11.97-6.91H55.6c4.92,0,9.51,2.65,11.97,6.91L80.4,32.43
			c1.23,2.13,1.85,4.52,1.85,6.91c0,2.39-0.62,4.78-1.85,6.91L67.57,68.47c-2.46,4.26-7.05,6.91-11.97,6.91H29.95z"/>
		
			<linearGradient id="SVGID_00000167394985693862662320000015951283230883190971_" gradientUnits="userSpaceOnUse" x1="-410.1919" y1="440.0047" x2="-354.2885" y2="498.8504" gradientTransform="matrix(0.7071 -0.7071 0.7071 0.7071 -20.1299 -562.9066)">
			<stop  offset="0" style="stop-color:#A7B846"/>
			<stop  offset="0.8727" style="stop-color:#2E677D"/>
		</linearGradient>
		<path style="fill:url(#SVGID_00000167394985693862662320000015951283230883190971_);" d="M37.56,28.56
			c-1.93,0-3.49,1.57-3.49,3.49l0,14.58c0,1.93,1.57,3.49,3.49,3.49l10.43,0c1.93,0,3.49-1.57,3.49-3.49l0-14.58
			c0-1.93-1.57-3.49-3.49-3.49L37.56,28.56z M48.17,32.06l0,14.58c0,0.1-0.08,0.18-0.18,0.18l-10.43,0c-0.1,0-0.18-0.08-0.18-0.18
			l0-14.58c0-0.1,0.08-0.18,0.18-0.18l10.43,0C48.09,31.87,48.17,31.96,48.17,32.06z"/>
		
			<linearGradient id="SVGID_00000127727811679278327670000015431659061438186408_" gradientUnits="userSpaceOnUse" x1="13.9593" y1="9.0134" x2="69.8627" y2="67.8591">
			<stop  offset="0" style="stop-color:#A7B846"/>
			<stop  offset="0.8727" style="stop-color:#2E677D"/>
		</linearGradient>
		<path style="fill:url(#SVGID_00000127727811679278327670000015431659061438186408_);" d="M51.92,71.2c2.03,0,3.94-0.79,5.38-2.23
			l15.1-15.1c2.97-2.97,2.97-7.8,0-10.76l-3.76-3.76l3.76-3.76c2.97-2.97,2.97-7.8,0-10.76L57.3,9.72c-2.97-2.97-7.8-2.97-10.76,0
			l-3.76,3.76l-3.76-3.76c-2.97-2.97-7.8-2.97-10.76,0l-15.1,15.1c-1.48,1.48-2.23,3.43-2.23,5.38s0.74,3.9,2.23,5.38l3.76,3.76
			l-3.76,3.76c-1.48,1.48-2.23,3.43-2.23,5.38c0,1.95,0.74,3.9,2.23,5.38l15.1,15.1c1.44,1.44,3.35,2.23,5.38,2.23
			c2.03,0,3.94-0.79,5.38-2.23l3.77-3.77l3.76,3.76C47.98,70.41,49.89,71.2,51.92,71.2z M48.88,12.06c1.68-1.68,4.41-1.68,6.08,0
			l15.1,15.1c0.84,0.84,1.26,1.94,1.26,3.04c0,1.1-0.42,2.2-1.26,3.04L66.29,37L45.12,15.83L48.88,12.06z M63.95,39.35L42.77,60.52
			L21.6,39.35l21.18-21.18L63.95,39.35z M15.49,33.24c-1.68-1.68-1.68-4.41,0-6.08l15.1-15.1c1.68-1.68,4.41-1.68,6.08,0l3.76,3.76
			L19.26,37L15.49,33.24z M36.67,66.63c-0.81,0.81-1.89,1.26-3.04,1.26c-1.15,0-2.23-0.45-3.04-1.26l-15.1-15.1
			c-1.68-1.68-1.68-4.41,0-6.08l3.76-3.76l21.18,21.18L36.67,66.63z M48.88,66.63l-3.76-3.76l21.18-21.18l3.76,3.76
			c0.84,0.84,1.26,1.94,1.26,3.04c0,1.1-0.42,2.2-1.26,3.04l-15.1,15.1c-0.81,0.81-1.89,1.26-3.04,1.26
			C50.77,67.89,49.69,67.44,48.88,66.63z"/>
	</g>
	<g class="st3">
		<defs>
			
				<rect id="SVGID_00000179645555917882917020000016660965826492354233_" x="-557.15" y="256.84" class="st3" width="1800" height="714.25"/>
		</defs>
		<clipPath id="SVGID_00000036213079108582734670000000387406344442637707_">
			<use xlink:href="#SVGID_00000179645555917882917020000016660965826492354233_"  style="overflow:visible;"/>
		</clipPath>
	</g>
</g>
<g id="Isolation_Mode">
</g>
</svg>
